<?xml version="1.0"?>
<svg version="1.1" xmlns="http://www.w3.org/2000/svg" width="400" height="200" style="border: dashed 2px #aaa"><path fill="#000000" d="M25.103515625,105.564453125l7.9296875,0l0,10.36328125q-1.927734375,0.62890625-3.6298828125,0.8818359375t-3.4794921875,0.2529296875q-4.525390625,0-6.9111328125-2.6591796875t-2.3857421875-7.6357421875q0-4.83984375,2.7685546875-7.546875t7.6767578125-2.70703125q3.076171875,0,5.93359375,1.23046875l-1.408203125,3.390625q-2.1875-1.09375-4.552734375-1.09375q-2.748046875,0-4.40234375,1.845703125t-1.654296875,4.962890625q0,3.25390625,1.3330078125,4.9697265625t3.8759765625,1.7158203125q1.326171875,0,2.693359375-0.2734375l0-4.169921875l-3.787109375,0l0-3.52734375z M49.09451171875,116.7890625l-0.806640625-2.078125l-0.109375,0q-1.052734375,1.326171875-2.1669921875,1.8388671875t-2.9052734375,0.5126953125q-2.201171875,0-3.4658203125-1.2578125t-1.2646484375-3.58203125q0-2.43359375,1.7021484375-3.5888671875t5.1337890625-1.2783203125l2.65234375-0.08203125l0-0.669921875q0-2.32421875-2.37890625-2.32421875q-1.83203125,0-4.306640625,1.107421875l-1.380859375-2.81640625q2.638671875-1.380859375,5.8515625-1.380859375q3.076171875,0,4.716796875,1.33984375t1.640625,4.07421875l0,10.185546875l-2.912109375,0z M47.86404296875,109.70703125l-1.61328125,0.0546875q-1.818359375,0.0546875-2.70703125,0.65625t-0.888671875,1.83203125q0,1.763671875,2.0234375,1.763671875q1.44921875,0,2.3173828125-0.833984375t0.8681640625-2.21484375l0-1.2578125z M64.6636328125,113.740234375q1.09375,0,2.625-0.478515625l0,3.103515625q-1.55859375,0.697265625-3.828125,0.697265625q-2.501953125,0-3.6435546875-1.2646484375t-1.1416015625-3.7939453125l0-7.369140625l-1.99609375,0l0-1.763671875l2.296875-1.39453125l1.203125-3.2265625l2.666015625,0l0,3.25390625l4.279296875,0l0,3.130859375l-4.279296875,0l0,7.369140625q0,0.888671875,0.4990234375,1.3125t1.3193359375,0.423828125z M82.96712890625,112.25q0,2.3515625-1.6337890625,3.58203125t-4.8876953125,1.23046875q-1.66796875,0-2.84375-0.2255859375t-2.201171875-0.6630859375l0-3.4453125q1.162109375,0.546875,2.6181640625,0.916015625t2.5634765625,0.369140625q2.26953125,0,2.26953125-1.3125q0-0.4921875-0.30078125-0.7998046875t-1.0390625-0.697265625t-1.96875-0.9091796875q-1.763671875-0.73828125-2.5908203125-1.3671875t-1.203125-1.4423828125t-0.3759765625-2.0029296875q0-2.037109375,1.5791015625-3.1513671875t4.4775390625-1.1142578125q2.76171875,0,5.373046875,1.203125l-1.2578125,3.0078125q-1.1484375-0.4921875-2.146484375-0.806640625t-2.037109375-0.314453125q-1.845703125,0-1.845703125,0.998046875q0,0.560546875,0.5947265625,0.970703125t2.6044921875,1.216796875q1.791015625,0.724609375,2.625,1.353515625t1.23046875,1.44921875t0.396484375,1.955078125z M96.64953125,101.216796875q2.70703125,0,4.23828125,2.1123046875t1.53125,5.7900390625q0,3.787109375-1.5791015625,5.865234375t-4.2998046875,2.078125q-2.693359375,0-4.224609375-1.955078125l-0.287109375,0l-0.697265625,1.681640625l-3.185546875,0l0-21.2734375l4.169921875,0l0,4.94921875q0,0.943359375-0.1640625,3.021484375l0.1640625,0q1.462890625-2.26953125,4.333984375-2.26953125z M95.3096875,104.552734375q-1.544921875,0-2.255859375,0.9501953125t-0.73828125,3.1376953125l0,0.451171875q0,2.4609375,0.7314453125,3.52734375t2.3173828125,1.06640625q1.28515625,0,2.0439453125-1.1826171875t0.7587890625-3.4384765625t-0.765625-3.3837890625t-2.091796875-1.1279296875z M105.60146484375,101.50390625l4.56640625,0l2.884765625,8.599609375q0.369140625,1.12109375,0.505859375,2.65234375l0.08203125,0q0.150390625-1.408203125,0.587890625-2.65234375l2.830078125-8.599609375l4.470703125,0l-6.466796875,17.240234375q-0.888671875,2.392578125-2.5361328125,3.58203125t-3.8486328125,1.189453125q-1.080078125,0-2.119140625-0.232421875l0-3.30859375q0.751953125,0.177734375,1.640625,0.177734375q1.107421875,0,1.9345703125-0.6767578125t1.2919921875-2.0439453125l0.24609375-0.751953125z M139.40572265625,106.20703125l1.39453125,0q1.955078125,0,2.92578125-0.7724609375t0.970703125-2.2490234375q0-1.490234375-0.8134765625-2.201171875t-2.5498046875-0.7109375l-1.927734375,0l0,5.93359375z M148.97603515625,103.03515625q0,3.2265625-2.0166015625,4.935546875t-5.7353515625,1.708984375l-1.818359375,0l0,7.109375l-4.23828125,0l0-19.98828125l6.384765625,0q3.63671875,0,5.5302734375,1.5654296875t1.8935546875,4.6689453125z M162.261953125,105.564453125l7.9296875,0l0,10.36328125q-1.927734375,0.62890625-3.6298828125,0.8818359375t-3.4794921875,0.2529296875q-4.525390625,0-6.9111328125-2.6591796875t-2.3857421875-7.6357421875q0-4.83984375,2.7685546875-7.546875t7.6767578125-2.70703125q3.076171875,0,5.93359375,1.23046875l-1.408203125,3.390625q-2.1875-1.09375-4.552734375-1.09375q-2.748046875,0-4.40234375,1.845703125t-1.654296875,4.962890625q0,3.25390625,1.3330078125,4.9697265625t3.8759765625,1.7158203125q1.326171875,0,2.693359375-0.2734375l0-4.169921875l-3.787109375,0l0-3.52734375z"/><path fill="#" d=""/></svg>
